<?xml version="1.0" encoding="UTF-8" standalone="no"?>
<svg
   xmlns:dc="http://purl.org/dc/elements/1.1/"
   xmlns:cc="http://creativecommons.org/ns#"
   xmlns:rdf="http://www.w3.org/1999/02/22-rdf-syntax-ns#"
   xmlns:svg="http://www.w3.org/2000/svg"
   xmlns="http://www.w3.org/2000/svg"
   xmlns:sodipodi="http://sodipodi.sourceforge.net/DTD/sodipodi-0.dtd"
   xmlns:inkscape="http://www.inkscape.org/namespaces/inkscape"
   version="1.1"
   viewBox="0 0 188 155"
   data-name="Calque 1"
   id="Calque_1"
   sodipodi:docname="background_next_down_188x155_new.svg"
   inkscape:version="0.92.5 (2060ec1f9f, 2020-04-08)"
   inkscape:export-filename="C:\Users\yannick.gasser\Documents\dev\linux-gui-app\ui-resources\images\synoptic_elements\background_next_down_188x155_F0F6F8.png"
   inkscape:export-xdpi="96"
   inkscape:export-ydpi="96">
  <sodipodi:namedview
     pagecolor="#ffffff"
     bordercolor="#666666"
     borderopacity="1"
     objecttolerance="10"
     gridtolerance="10"
     guidetolerance="10"
     inkscape:pageopacity="0"
     inkscape:pageshadow="2"
     inkscape:window-width="1920"
     inkscape:window-height="1017"
     id="namedview12"
     showgrid="false"
     inkscape:zoom="1.5225806"
     inkscape:cx="94"
     inkscape:cy="77.5"
     inkscape:window-x="-8"
     inkscape:window-y="-8"
     inkscape:window-maximized="1"
     inkscape:current-layer="Calque_1" />
  <metadata
     id="metadata21">
    <rdf:RDF>
      <cc:Work
         rdf:about="">
        <dc:format>image/svg+xml</dc:format>
        <dc:type
           rdf:resource="http://purl.org/dc/dcmitype/StillImage" />
        <dc:title />
      </cc:Work>
    </rdf:RDF>
  </metadata>
  <defs
     id="defs4">
    <style
       id="style2">.cls-1{fill:none;stroke:#6ba3b8;}.cls-2{fill:#6ba4b8;}</style>
  </defs>
  <path
     id="path6"
     d="M.5.5v154h175a12,12,0,0,0,12-12V.5Z"
     class="cls-1"
     style="fill:#f0f6f8;fill-opacity:1" />
  <path
     id="path8"
     d="M38.53,64.45h5.86l1.17,2.64a12.75,12.75,0,0,1,7.91-2.93c6.44,0,10.84,4.39,10.84,11.42V91.4H56.4V77.05c0-3.52-2-5.57-5-5.57s-5,2-5,5.57V91.4H38.53Z"
     class="cls-2" />
  <path
     id="path10"
     d="M67.7,77.93A13.82,13.82,0,0,1,81.47,63.87c7.32,0,13.18,5.56,13.18,14.06a16.25,16.25,0,0,1-.29,2.63H75.9a5.8,5.8,0,0,0,5.57,4.1,4.9,4.9,0,0,0,4.1-1.75l8.2.58c-1.46,4.4-5.57,8.5-12.6,8.5A13.76,13.76,0,0,1,67.7,77.93ZM87,75.58a5.72,5.72,0,0,0-11.13,0Z"
     class="cls-2" />
  <path
     id="path12"
     d="M102.15,77.63,93.94,64.45h8.79l4.4,7.62,4.39-7.62h8.79L112.1,77.63l8.79,13.77H112.1l-5-8.2-5,8.2H93.36Z"
     class="cls-2" />
  <path
     id="path14"
     d="M126.34,81.74v-10h-4.1V65h2.05a2.93,2.93,0,0,0,3.22-3.22V58h6.74v6.44h5.56v7.33h-5.56v8.78c0,2.35,1.46,3.81,3.51,3.81a7.23,7.23,0,0,0,2.05-.29v7a12.13,12.13,0,0,1-3.81.58C129.85,91.69,126.34,88.18,126.34,81.74Z"
     class="cls-2" />
  <path
     id="path16"
     d="M87.8,46.9V59.22h3V49.88H146V99.61a5.52,5.52,0,0,1-5.52,5.51H90.78V96.93h-3V108.1h52.7a8.49,8.49,0,0,0,8.5-8.49V46.9Z"
     class="cls-2" />
</svg>
