<?xml version="1.0" encoding="utf-8"?>
<!-- Generator: Adobe Illustrator 24.1.0, SVG Export Plug-In . SVG Version: 6.00 Build 0)  -->
<svg version="1.1" id="Calque_1" xmlns="http://www.w3.org/2000/svg" xmlns:xlink="http://www.w3.org/1999/xlink" x="0px" y="0px"
	 viewBox="0 0 62 62" style="enable-background:new 0 0 62 62;" xml:space="preserve">
<style type="text/css">
	.st0{fill:none;stroke:#000000;stroke-width:2;stroke-linecap:round;stroke-linejoin:round;stroke-miterlimit:10;}
</style>
<g>
	<path class="st0" d="M27.7,28.2c-0.2,0.2-0.3,0.5-0.2,0.7c0.1,0.3,0.3,0.5,0.5,0.6l4,1.3l-2.8,5.5c-0.2,0.3-0.1,0.8,0.3,1
		c0.3,0.2,0.8,0.2,1-0.1l4.3-4.2l3.8-3.7c0.2-0.2,0.3-0.5,0.2-0.7c-0.1-0.3-0.3-0.5-0.5-0.6l-4-1.3l2.8-5.5c0.2-0.3,0.1-0.8-0.3-1
		c-0.3-0.2-0.8-0.2-1,0.1l-4.3,4.2L27.7,28.2z M54.5,37.1c0,2.9-2.4,5.2-5.4,5.2c-3,0-5.4-2.3-5.4-5.2c0-2.9,2.4-5.2,5.4-5.2
		C52.1,31.9,54.5,34.2,54.5,37.1z M16.9,37.1c0,2.9-2.4,5.2-5.4,5.2S6.2,40,6.2,37.1c0-2.9,2.4-5.2,5.4-5.2S16.9,34.2,16.9,37.1z
		 M16.8,37.9h27 M15.1,26.6c0,0,8-6.9,19.6-6.9s19.1,6.2,19.1,6.2l6.4,1.4v7c0,1.4-0.5,1.8-2.2,2.5c-1.6,0.6-3.6,1.4-3.6,1.4
		 M6.2,37.9H2.8L1.9,34c0,0,3.1-7.6,17.5-7.6h10.2 M34.5,26.4h8.7h2l3.4-3.5"/>
</g>
</svg>
