<?xml version="1.0" encoding="utf-8"?>
<!-- Generator: Adobe Illustrator 24.1.0, SVG Export Plug-In . SVG Version: 6.00 Build 0)  -->
<svg version="1.1" id="Calque_1" xmlns="http://www.w3.org/2000/svg" xmlns:xlink="http://www.w3.org/1999/xlink" x="0px" y="0px"
	 viewBox="0 0 25 55" style="enable-background:new 0 0 25 55;" xml:space="preserve">
<style type="text/css">
	.st0{fill:none;stroke:#FFDE00;stroke-width:2;stroke-linecap:round;stroke-linejoin:round;}
	.st1{opacity:0.2;fill:none;stroke:#FFDE00;stroke-width:2;stroke-linecap:round;stroke-linejoin:round;enable-background:new    ;}
</style>
<path class="st0" d="M1,27.8V54h17.2c3.3-0.1,5.9-2.8,5.8-6.1c0,0,0,0,0,0V27.8 M1,5.8V54h17.2c3.3-0.1,5.9-2.8,5.8-6.1c0,0,0,0,0,0
	V5.8H1z M18.2,5.8H6.8V1h11.5L18.2,5.8L18.2,5.8z"/>
<line class="st1" x1="5.2" y1="19.1" x2="19.2" y2="19.1"/>
<line class="st1" x1="5.2" y1="23.4" x2="19.2" y2="23.4"/>
<line class="st1" x1="5.2" y1="27.8" x2="19.2" y2="27.8"/>
<line class="st1" x1="5.2" y1="32.1" x2="19.2" y2="32.1"/>
<line class="st1" x1="5.2" y1="10.5" x2="19.2" y2="10.5"/>
<line class="st1" x1="5.2" y1="36.4" x2="19.2" y2="36.4"/>
<line class="st1" x1="5.2" y1="14.8" x2="19.2" y2="14.8"/>
<line class="st1" x1="5.2" y1="45.1" x2="19.2" y2="45.1"/>
<line class="st1" x1="5.2" y1="49.4" x2="19" y2="49.4"/>
<line class="st1" x1="5.2" y1="40.7" x2="19.2" y2="40.7"/>
</svg>
