<?xml version="1.0" encoding="UTF-8" standalone="no"?>
<!-- Generator: Adobe Illustrator 24.1.0, SVG Export Plug-In . SVG Version: 6.00 Build 0)  -->

<svg
   xmlns:dc="http://purl.org/dc/elements/1.1/"
   xmlns:cc="http://creativecommons.org/ns#"
   xmlns:rdf="http://www.w3.org/1999/02/22-rdf-syntax-ns#"
   xmlns:svg="http://www.w3.org/2000/svg"
   xmlns="http://www.w3.org/2000/svg"
   xmlns:sodipodi="http://sodipodi.sourceforge.net/DTD/sodipodi-0.dtd"
   xmlns:inkscape="http://www.inkscape.org/namespaces/inkscape"
   version="1.1"
   id="Calque_1"
   x="0px"
   y="0px"
   viewBox="0 0 25 55"
   style="enable-background:new 0 0 25 55;"
   xml:space="preserve"
   sodipodi:docname="icn_battery_0pc_err_25x55.svg"
   inkscape:export-filename="C:\Users\yannick.gasser\Documents\dev\linux-gui-app\ui-resources\images\synoptic_elements\icn_battery_0pc_err_25x55_FF0000.png"
   inkscape:export-xdpi="96"
   inkscape:export-ydpi="96"
   inkscape:version="0.92.5 (2060ec1f9f, 2020-04-08)"><metadata
   id="metadata31"><rdf:RDF><cc:Work
       rdf:about=""><dc:format>image/svg+xml</dc:format><dc:type
         rdf:resource="http://purl.org/dc/dcmitype/StillImage" /></cc:Work></rdf:RDF></metadata><defs
   id="defs29" /><sodipodi:namedview
   pagecolor="#ffffff"
   bordercolor="#666666"
   borderopacity="1"
   objecttolerance="10"
   gridtolerance="10"
   guidetolerance="10"
   inkscape:pageopacity="0"
   inkscape:pageshadow="2"
   inkscape:window-width="1920"
   inkscape:window-height="1017"
   id="namedview27"
   showgrid="false"
   inkscape:zoom="4.2909091"
   inkscape:cx="12.5"
   inkscape:cy="27.5"
   inkscape:window-x="-8"
   inkscape:window-y="-8"
   inkscape:window-maximized="1"
   inkscape:current-layer="Calque_1" />
<style
   type="text/css"
   id="style2">
	.st0{fill:none;stroke:#FF0000;stroke-width:2;stroke-linecap:round;stroke-linejoin:round;}
	.st1{opacity:0.2;fill:none;stroke:#FF0000;stroke-width:2;stroke-linecap:round;stroke-linejoin:round;enable-background:new    ;}
</style>
<path
   class="st0"
   d="M1,27.8V54h17.2c3.3-0.1,5.9-2.8,5.8-6.1c0,0,0,0,0,0V27.8 M1,5.8V54h17.2c3.3-0.1,5.9-2.8,5.8-6.1c0,0,0,0,0,0  V5.8H1z M18.2,5.8H6.8V1h11.5L18.2,5.8L18.2,5.8z"
   id="path4" />
<line
   class="st1"
   x1="5.2"
   y1="19.1"
   x2="19.2"
   y2="19.1"
   id="line6" />
<line
   class="st1"
   x1="5.2"
   y1="23.4"
   x2="19.2"
   y2="23.4"
   id="line8" />
<line
   class="st1"
   x1="5.2"
   y1="27.8"
   x2="19.2"
   y2="27.8"
   id="line10" />
<line
   class="st1"
   x1="5.2"
   y1="32.1"
   x2="19.2"
   y2="32.1"
   id="line12" />
<line
   class="st1"
   x1="5.2"
   y1="10.5"
   x2="19.2"
   y2="10.5"
   id="line14" />
<line
   class="st1"
   x1="5.2"
   y1="36.4"
   x2="19.2"
   y2="36.4"
   id="line16" />
<line
   class="st1"
   x1="5.2"
   y1="14.8"
   x2="19.2"
   y2="14.8"
   id="line18" />
<line
   class="st1"
   x1="5.2"
   y1="45.1"
   x2="19.2"
   y2="45.1"
   id="line20" />
<line
   class="st1"
   x1="5.2"
   y1="49.4"
   x2="19"
   y2="49.4"
   id="line22" />
<line
   class="st1"
   x1="5.2"
   y1="40.7"
   x2="19.2"
   y2="40.7"
   id="line24" />
</svg>