<?xml version="1.0" encoding="utf-8"?>
<!-- Generator: Adobe Illustrator 24.1.0, SVG Export Plug-In . SVG Version: 6.00 Build 0)  -->
<svg version="1.1" id="Calque_1" xmlns="http://www.w3.org/2000/svg" xmlns:xlink="http://www.w3.org/1999/xlink" x="0px" y="0px"
	 viewBox="0 0 62 62" style="enable-background:new 0 0 62 62;" xml:space="preserve">
<style type="text/css">
	.st0{fill:none;stroke:#000000;stroke-width:2;stroke-linecap:round;stroke-linejoin:round;stroke-miterlimit:10;}
</style>
<g>
	<path class="st0" d="M26,33.5c-0.2,0.2-0.3,0.5-0.2,0.8c0.1,0.3,0.3,0.5,0.5,0.6l4.1,1.4L27.5,42c-0.2,0.4-0.1,0.8,0.3,1
		c0.3,0.2,0.8,0.2,1.1-0.1l4.4-4.4l3.9-3.9c0.2-0.2,0.3-0.5,0.2-0.8c-0.1-0.3-0.3-0.5-0.5-0.6L32.7,32l2.9-5.7
		c0.2-0.4,0.1-0.8-0.3-1c-0.3-0.2-0.8-0.2-1.1,0.1l-4.4,4.4L26,33.5z M47.2,47.7v4.5h-4.5v-4.5 M23.1,47.7c0,2.5-2,4.5-4.5,4.5
		c-2.5,0-4.5-2-4.5-4.5c0-2.5,2-4.5,4.5-4.5C21.1,43.2,23.1,45.2,23.1,47.7z M40.7,20.5c0-5.9,4.8-10.7,10.8-10.7h2.8v5.6h-2.8
		c-2.8,0-5.1,2.3-5.1,5.1H40.7z M14,47.7H8.8V20.5h45.4v27.2H23.1"/>
</g>
</svg>
