<?xml version="1.0" encoding="UTF-8" standalone="no"?>
<svg
   xmlns:dc="http://purl.org/dc/elements/1.1/"
   xmlns:cc="http://creativecommons.org/ns#"
   xmlns:rdf="http://www.w3.org/1999/02/22-rdf-syntax-ns#"
   xmlns:svg="http://www.w3.org/2000/svg"
   xmlns="http://www.w3.org/2000/svg"
   xmlns:sodipodi="http://sodipodi.sourceforge.net/DTD/sodipodi-0.dtd"
   xmlns:inkscape="http://www.inkscape.org/namespaces/inkscape"
   id="Calque_1"
   data-name="Calque 1"
   viewBox="0 0 61.79 61.5"
   version="1.1"
   sodipodi:docname="icn_solarpanels_62x62.svg"
   inkscape:export-filename="C:\Users\yannick.gasser\Documents\dev\linux-gui-app\ui-resources\images\synoptic_elements\icn_solarpanels_62x62_000000.png"
   inkscape:export-xdpi="96"
   inkscape:export-ydpi="96"
   inkscape:version="0.92.5 (2060ec1f9f, 2020-04-08)">
  <metadata
     id="metadata11">
    <rdf:RDF>
      <cc:Work
         rdf:about="">
        <dc:format>image/svg+xml</dc:format>
        <dc:type
           rdf:resource="http://purl.org/dc/dcmitype/StillImage" />
        <dc:title></dc:title>
      </cc:Work>
    </rdf:RDF>
  </metadata>
  <sodipodi:namedview
     pagecolor="#ffffff"
     bordercolor="#666666"
     borderopacity="1"
     objecttolerance="10"
     gridtolerance="10"
     guidetolerance="10"
     inkscape:pageopacity="0"
     inkscape:pageshadow="2"
     inkscape:window-width="1920"
     inkscape:window-height="1017"
     id="namedview9"
     showgrid="false"
     inkscape:zoom="3.8373984"
     inkscape:cx="30.895"
     inkscape:cy="30.75"
     inkscape:window-x="-8"
     inkscape:window-y="-8"
     inkscape:window-maximized="1"
     inkscape:current-layer="Calque_1" />
  <defs
     id="defs4">
    <style
       id="style2">.cls-1{fill:none;stroke:#000;stroke-linecap:round;stroke-linejoin:round;stroke-width:2px;}</style>
  </defs>
  <path
     class="cls-1"
     d="M39,29.89H51.46M32.06,47H45.18M28.92,55.53H42M35.2,38.44H48.32m.94-11.29-11,30.49m4.4-30.49-11,30.49M57,24.12H60.9L47.54,60.75H43.6m-.94-36.63H57L43.6,60.75H23.87l9.45-25.92M9.09,47H21.43M6,55.53H18.29M22,39.84l-6.55,17.8M14.29,39.8,7.73,57.64m20-19.79L19.3,60.75H1.1L9.6,37.63M10,18.72,3.78,19m34-1.48-6.22.27M26.81,9.31l3.48-5.15m-19,28.18,3.48-5.15m-2.91-15L6.67,8.74m28.21,19-5.15-3.48M31,14.65l5.87-2.07M4.74,23.92l5.86-2.07M17.17,8.08,15.1,2.23m11.36,32-2.08-5.85m6.72-7,5.95,1.82M4.51,13.28l6,1.82M23.93,7.94,25.75,2M15.8,34.51l1.82-5.95m9.58-1.64,3.7,5M10.66,4.58l3.7,5m15.09,2.25,5-3.69M7.1,28.36l5-3.69M20.78,29v6.22m0-34V7.47M31.57,18.25A10.8,10.8,0,1,1,20.78,7.47,10.78,10.78,0,0,1,31.57,18.25Z"
     transform="translate(-0.1 -0.25)"
     id="path6" />
</svg>
