<?xml version="1.0" encoding="UTF-8" standalone="no"?>
<!-- Generator: Adobe Illustrator 24.1.0, SVG Export Plug-In . SVG Version: 6.00 Build 0)  -->

<svg
   xmlns:dc="http://purl.org/dc/elements/1.1/"
   xmlns:cc="http://creativecommons.org/ns#"
   xmlns:rdf="http://www.w3.org/1999/02/22-rdf-syntax-ns#"
   xmlns:svg="http://www.w3.org/2000/svg"
   xmlns="http://www.w3.org/2000/svg"
   xmlns:sodipodi="http://sodipodi.sourceforge.net/DTD/sodipodi-0.dtd"
   xmlns:inkscape="http://www.inkscape.org/namespaces/inkscape"
   version="1.1"
   id="Calque_1"
   x="0px"
   y="0px"
   viewBox="0 0 61.8 61.5"
   style="enable-background:new 0 0 61.8 61.5;"
   xml:space="preserve"
   sodipodi:docname="icn_solarpanels_err_62x62.svg"
   inkscape:export-filename="C:\Users\yannick.gasser\Documents\dev\linux-gui-app\ui-resources\images\synoptic_elements\icn_solarpanels_err_62x62_FF0000.png"
   inkscape:export-xdpi="96"
   inkscape:export-ydpi="96"
   inkscape:version="0.92.5 (2060ec1f9f, 2020-04-08)"><metadata
   id="metadata11"><rdf:RDF><cc:Work
       rdf:about=""><dc:format>image/svg+xml</dc:format><dc:type
         rdf:resource="http://purl.org/dc/dcmitype/StillImage" /></cc:Work></rdf:RDF></metadata><defs
   id="defs9" /><sodipodi:namedview
   pagecolor="#ffffff"
   bordercolor="#666666"
   borderopacity="1"
   objecttolerance="10"
   gridtolerance="10"
   guidetolerance="10"
   inkscape:pageopacity="0"
   inkscape:pageshadow="2"
   inkscape:window-width="1920"
   inkscape:window-height="1017"
   id="namedview7"
   showgrid="false"
   inkscape:zoom="3.8373984"
   inkscape:cx="30.9"
   inkscape:cy="30.75"
   inkscape:window-x="-8"
   inkscape:window-y="-8"
   inkscape:window-maximized="1"
   inkscape:current-layer="Calque_1" />
<style
   type="text/css"
   id="style2">
	.st0{fill:none;stroke:#FF0000;stroke-width:2;stroke-linecap:round;stroke-linejoin:round;}
</style>
<path
   class="st0"
   d="M38.9,29.6h12.5 M32,46.8h13.1 M28.8,55.3h13.1 M35.1,38.2h13.1 M49.2,26.9l-11,30.5 M42.6,26.9l-11,30.5   M56.9,23.9h3.9L47.4,60.5h-3.9 M42.6,23.9h14.3L43.5,60.5H23.8l9.5-25.9 M9,46.8h12.3 M5.9,55.3h12.3 M21.9,39.6l-6.6,17.8   M14.2,39.5L7.6,57.4 M27.6,37.6l-8.4,22.9H1l8.5-23.1 M9.9,18.5l-6.2,0.3 M37.7,17.3l-6.2,0.3 M26.7,9.1l3.5-5.2 M11.2,32.1  l3.5-5.1 M11.8,11.9L6.6,8.5 M34.8,27.5L29.6,24 M30.9,14.4l5.9-2.1 M4.6,23.7l5.9-2.1 M17.1,7.8L15,2 M26.4,34l-2.1-5.9 M31,21.1  l6,1.8 M4.4,13l6,1.8 M23.8,7.7l1.8-5.9 M15.7,34.3l1.8-6 M27.1,26.7l3.7,5 M10.6,4.3l3.7,5 M29.4,11.6l5-3.7 M7,28.1l5-3.7   M20.7,28.8V35 M20.7,1v6.2 M31.5,18c0,6-4.8,10.8-10.8,10.8S9.9,24,9.9,18c0-6,4.8-10.8,10.8-10.8c0,0,0,0,0,0  C26.6,7.2,31.5,12,31.5,18C31.5,18,31.5,18,31.5,18z"
   id="path4" />
</svg>