<svg id="Calque_1" data-name="Calque 1" xmlns="http://www.w3.org/2000/svg" viewBox="0 0 25 55"><defs><style>.cls-1,.cls-2{fill:none;stroke:#000;stroke-linecap:round;stroke-linejoin:round;stroke-width:2px;}.cls-2{opacity:0.2;}</style></defs><path class="cls-1" d="M1,27.8V54H18.2A5.94,5.94,0,0,0,24,47.9V27.8M1,5.8V54H18.2A5.94,5.94,0,0,0,24,47.9V5.8Zm17.2,0H6.8V1H18.3V5.8Z"/><line class="cls-2" x1="5.2" y1="19.1" x2="19.2" y2="19.1"/><line class="cls-2" x1="5.2" y1="23.4" x2="19.2" y2="23.4"/><line class="cls-2" x1="5.2" y1="27.8" x2="19.2" y2="27.8"/><line class="cls-2" x1="5.2" y1="32.1" x2="19.2" y2="32.1"/><line class="cls-2" x1="5.2" y1="10.5" x2="19.2" y2="10.5"/><line class="cls-2" x1="5.2" y1="36.4" x2="19.2" y2="36.4"/><line class="cls-2" x1="5.2" y1="14.8" x2="19.2" y2="14.8"/><line class="cls-2" x1="5.2" y1="45.1" x2="19.2" y2="45.1"/><line class="cls-2" x1="5.2" y1="49.4" x2="19" y2="49.4"/><line class="cls-2" x1="5.2" y1="40.7" x2="19.2" y2="40.7"/></svg>