<?xml version="1.0" encoding="UTF-8" standalone="no"?>
<!DOCTYPE svg PUBLIC "-//W3C//DTD SVG 1.1//EN" "http://www.w3.org/Graphics/SVG/1.1/DTD/svg11.dtd">
<svg width="100%" height="100%" viewBox="0 0 2134 1067" version="1.1" xmlns="http://www.w3.org/2000/svg" xmlns:xlink="http://www.w3.org/1999/xlink" xml:space="preserve" xmlns:serif="http://www.serif.com/" style="fill-rule:evenodd;clip-rule:evenodd;stroke-linejoin:round;stroke-miterlimit:2;">
    <g id="Logo" transform="matrix(1,0,0,0.5,0,0)">
        <rect x="0" y="0" width="2133.33" height="2133.33" style="fill:none;"/>
        <g transform="matrix(0.282344,0,0,0.564689,370.204,2102.85)">
            <g>
                <g transform="matrix(0.396825,-6.07709e-16,-6.07709e-16,-0.396825,-730.4,-110.29)">
                    <path d="M4873,8242C3790,8120 2749,7212 1754,5523C1694,5422 1585,5238 1512,5114C1366,4867 1248,4661 1110,4410C1014,4234 675,3606 640,3538L619,3497L2494,3497L2629,3788C2913,4396 3226,5017 3410,5334C3778,5971 4119,6380 4488,6627C4853,6872 5228,6933 5612,6809C5810,6745 6057,6603 6274,6429C6546,6210 6701,6050 6944,5738L7084,5560L7534,5557C7782,5556 8076,5558 8187,5562L8389,5570L8286,5749C8074,6118 7866,6424 7633,6710C7588,6764 7514,6857 7467,6914C7376,7029 6968,7437 6825,7556C6716,7648 6532,7780 6402,7860C6097,8049 5798,8166 5481,8221C5330,8247 5017,8258 4873,8242Z" style="fill-rule:nonzero;"/>
                </g>
                <g transform="matrix(0.396825,-6.07709e-16,-6.07709e-16,-0.396825,-730.4,-110.29)">
                    <path d="M4090,5154C3922,5130 3793,5055 3719,4937C3689,4891 3500,4429 3460,4307C3450,4276 3442,4223 3441,4188C3441,4134 3444,4122 3470,4095C3529,4034 3562,4029 3943,4021C4133,4018 4291,4014 4293,4013C4303,4008 4283,3918 4263,3872C4221,3777 4236,3780 3834,3780C3471,3780 3374,3787 3316,3816C3298,3825 3282,3831 3280,3830C3276,3825 3236,3663 3224,3596C3217,3562 3209,3525 3206,3514C3201,3496 3227,3496 3818,3499C4426,3503 4438,3503 4515,3527C4689,3579 4782,3657 4852,3806C4898,3906 5052,4306 5077,4393C5101,4476 5091,4540 5049,4580C4987,4637 4941,4644 4581,4651C4344,4655 4250,4660 4241,4670C4231,4680 4234,4700 4259,4763C4308,4893 4289,4887 4671,4891C5018,4895 5137,4885 5193,4851C5225,4831 5228,4830 5233,4848C5240,4870 5303,5153 5303,5161C5303,5170 4156,5164 4090,5154Z" style="fill-rule:nonzero;"/>
                </g>
                <g transform="matrix(0.396825,-6.07709e-16,-6.07709e-16,-0.396825,-730.4,-110.29)">
                    <path d="M5519,5100C5446,4968 5378,4841 5381,4841C5382,4841 5407,4851 5435,4864C5481,4885 5507,4887 5695,4891C5895,4895 5904,4894 5899,4876C5896,4865 5829,4696 5752,4499C5674,4303 5569,4038 5519,3911C5426,3673 5396,3614 5328,3539L5290,3497L6046,3497L6050,3583C6054,3679 6027,3603 6367,4473L6528,4888L6737,4888C6933,4888 6948,4886 6985,4865L7024,4842L7035,4881C7047,4927 7098,5152 7098,5160C7098,5163 6751,5166 6327,5166L5556,5166L5519,5100Z" style="fill-rule:nonzero;"/>
                </g>
                <g transform="matrix(0.396825,-6.07709e-16,-6.07709e-16,-0.396825,-730.4,-110.29)">
                    <path d="M7271,5085C7271,5005 7268,4996 7094,4552C6997,4303 6899,4052 6876,3993C6826,3864 6809,3782 6819,3706C6830,3618 6862,3571 6935,3533L6997,3502L7544,3502C8153,3502 8123,3499 8279,3579C8371,3626 8478,3730 8528,3822C8549,3860 8593,3959 8626,4043C8659,4126 8751,4362 8832,4566C8991,4973 9022,5039 9091,5115L9137,5166L8731,5166L8731,5085C8731,5004 8729,5000 8522,4473C8407,4181 8303,3921 8289,3896C8260,3837 8225,3804 8179,3790C8122,3774 7519,3777 7487,3794C7448,3814 7454,3867 7511,4012C7904,5023 7892,4995 7972,5100L8021,5166L7271,5166L7271,5085Z" style="fill-rule:nonzero;"/>
                </g>
                <g transform="matrix(0.396825,-6.07709e-16,-6.07709e-16,-0.396825,-730.4,-110.29)">
                    <path d="M9374,5116C9383,5026 9376,5006 9015,4097C8852,3687 8840,3661 8768,3566L8716,3497L9422,3497C10195,3497 10208,3498 10336,3559C10453,3615 10567,3737 10643,3888C10681,3963 10970,4706 10998,4800C11007,4830 11015,4889 11015,4930C11015,5037 10987,5087 10904,5129L10843,5161L9369,5167L9374,5116ZM10353,4867C10372,4850 10375,4839 10369,4804C10364,4769 10144,4196 10041,3949C10026,3911 9994,3861 9970,3837C9918,3782 9893,3778 9674,3782L9516,3785L9599,3995C9645,4111 9739,4349 9808,4526C9877,4702 9938,4857 9944,4870L9954,4895L10142,4891C10312,4888 10332,4886 10353,4867Z" style="fill-rule:nonzero;"/>
                </g>
                <g transform="matrix(0.396825,-6.07709e-16,-6.07709e-16,-0.396825,-730.4,-110.29)">
                    <path d="M11403,5100C11403,4999 11416,5036 11092,4216C10867,3647 10859,3630 10774,3536L10739,3497L12231,3497L12293,3609C12379,3763 12413,3833 12403,3832C12399,3832 12358,3820 12313,3806C12233,3781 12225,3780 11891,3780C11703,3780 11550,3781 11550,3783C11550,3786 11579,3861 11678,4114L11720,4222L12048,4219C12338,4216 12378,4214 12403,4197C12441,4173 12450,4174 12458,4206C12461,4221 12490,4298 12521,4376C12552,4455 12577,4521 12575,4522C12574,4524 12549,4517 12521,4508C12479,4494 12405,4490 12151,4486C11926,4483 11834,4485 11834,4493C11834,4502 11931,4765 11976,4876C11983,4894 12001,4895 12326,4890C12605,4887 12678,4883 12720,4869C12749,4859 12773,4853 12774,4854C12778,4859 12842,5141 12842,5153C12842,5163 12691,5166 12122,5166L11403,5166L11403,5100Z" style="fill-rule:nonzero;"/>
                </g>
                <g transform="matrix(0.396825,-6.07709e-16,-6.07709e-16,-0.396825,-730.4,-110.29)">
                    <path d="M13057,5085C13057,5005 13054,4996 12916,4646C12838,4450 12755,4237 12730,4174C12532,3661 12520,3635 12439,3543L12399,3497L13162,3497L13162,3583C13162,3668 13165,3676 13267,3940L13372,4210L13469,4210C13522,4210 13567,4209 13568,4208C13568,4206 13572,4047 13575,3854L13582,3502L14304,3496L14296,3530C14276,3627 14238,4036 14238,4163L14238,4207L14293,4209C14379,4211 14453,4254 14505,4331C14568,4423 14741,4861 14749,4948C14760,5072 14703,5130 14543,5155C14501,5162 14200,5166 13766,5166L13057,5166L13057,5085ZM14041,4882C14063,4876 14082,4863 14086,4852C14093,4827 14060,4727 14007,4613C13950,4491 13948,4490 13695,4485C13567,4483 13493,4486 13493,4492C13493,4500 13583,4744 13635,4875C13641,4891 13660,4893 13822,4893C13921,4893 14019,4888 14041,4882Z" style="fill-rule:nonzero;"/>
                </g>
                <g transform="matrix(0.396825,-6.07709e-16,-6.07709e-16,-0.396825,-730.4,-110.29)">
                    <path d="M15099,4791C14570,3603 13978,2596 13429,1952C13314,1816 13068,1571 12952,1476C12558,1153 12179,1007 11837,1049C11647,1072 11458,1144 11290,1257C11133,1363 10891,1586 10703,1799C10460,2074 10059,2653 9857,3019L9791,3139L9185,3139C8851,3139 8579,3136 8579,3133C8579,3115 9027,2441 9197,2201C9523,1744 9823,1395 10104,1148C10536,767 10950,554 11429,467C11556,444 11912,435 12055,451C12780,534 13172,803 13782,1638C14434,2530 14855,3373 15403,4883C15448,5007 15488,5119 15492,5132C15499,5155 15499,5156 15380,5156L15261,5156L15099,4791Z" style="fill-rule:nonzero;"/>
                </g>
            </g>
            <g transform="matrix(1.05941,0,0,1.05941,-224.124,111.488)">
                <g id="path3773" transform="matrix(4.02731,8.2173e-31,-8.2173e-31,4.02731,4192.95,444.557)">
                    <path d="M-276.04,-740.269C-264.191,-744.818 -256.327,-756.261 -256.327,-768.953C-256.327,-785.808 -270.197,-799.678 -287.052,-799.678C-303.907,-799.678 -317.777,-785.808 -317.777,-768.953C-317.777,-756.261 -309.913,-744.818 -298.064,-740.269L-318.76,-686.341C-352.888,-699.44 -375.54,-732.397 -375.54,-768.952C-375.54,-817.495 -335.595,-857.44 -287.052,-857.44C-238.509,-857.44 -198.564,-817.495 -198.564,-768.952C-198.564,-732.397 -221.216,-699.44 -255.344,-686.341L-276.04,-740.269Z" style="fill:rgb(97,187,70);fill-rule:nonzero;"/>
                </g>
                <g transform="matrix(18.4786,-6.57384e-30,0,18.4786,-11077.5,-12818.8)">
                    <text x="782.518px" y="567.436px" style="font-family:'Arial-Black', 'Arial Black', sans-serif;font-weight:900;font-size:50px;fill:rgb(97,187,70);">P<tspan x="816.126px 849.735px " y="567.436px 567.436px ">EN</tspan></text>
                </g>
            </g>
        </g>
    </g>
</svg>
