<?xml version="1.0" encoding="UTF-8" standalone="no"?><!DOCTYPE svg PUBLIC "-//W3C//DTD SVG 1.1//EN" "http://www.w3.org/Graphics/SVG/1.1/DTD/svg11.dtd"><svg width="100%" height="100%" viewBox="0 0 920 460" version="1.1" xmlns="http://www.w3.org/2000/svg" xmlns:xlink="http://www.w3.org/1999/xlink" xml:space="preserve" xmlns:serif="http://www.serif.com/" style="fill-rule:evenodd;clip-rule:evenodd;stroke-linejoin:round;stroke-miterlimit:2;"><rect id="logo" x="0" y="0" width="920" height="460" style="fill:none;"/><g><g><path d="M280.507,10.361C219.449,17.239 160.759,68.43 104.663,163.653C101.28,169.348 95.135,179.721 91.019,186.712C82.788,200.637 76.135,212.251 68.355,226.402C62.943,236.325 43.831,271.73 41.857,275.564L40.674,277.876L146.383,277.876L153.994,261.47C170.005,227.192 187.652,192.181 198.025,174.309C218.772,138.396 237.997,115.337 258.801,101.412C279.379,87.599 300.521,84.16 322.17,91.151C333.333,94.759 347.259,102.765 359.493,112.575C374.828,124.921 383.566,133.942 397.266,151.532L405.159,161.567L430.529,161.736C444.511,161.793 461.086,161.68 467.344,161.455L478.733,161.004L472.926,150.912C460.973,130.108 449.247,112.857 436.111,96.732C433.574,93.688 429.402,88.445 426.752,85.231C421.621,78.748 398.619,55.745 390.557,49.036C384.412,43.85 374.038,36.408 366.709,31.897C349.514,21.242 332.657,14.646 314.785,11.545C306.272,10.079 288.625,9.459 280.507,10.361Z" style="fill:rgb(35,35,35);fill-rule:nonzero;"/><path d="M236.362,184.457C226.891,185.81 219.618,190.038 215.446,196.691C213.755,199.284 203.099,225.331 200.844,232.209C200.28,233.957 199.829,236.945 199.773,238.918C199.773,241.963 199.942,242.639 201.408,244.161C204.734,247.601 206.595,247.882 228.075,248.333C238.787,248.503 247.695,248.728 247.807,248.785C248.371,249.066 247.243,254.14 246.116,256.734C243.748,262.09 244.594,261.921 221.93,261.921C201.464,261.921 195.996,261.526 192.726,259.891C191.711,259.384 190.809,259.045 190.696,259.102C190.471,259.384 188.215,268.517 187.539,272.294C187.144,274.211 186.693,276.297 186.524,276.917C186.242,277.932 187.708,277.932 221.028,277.763C255.306,277.537 255.982,277.537 260.323,276.184C270.133,273.253 275.376,268.855 279.323,260.455C281.916,254.817 290.598,232.266 292.008,227.361C293.361,222.681 292.797,219.073 290.429,216.818C286.934,213.604 284.34,213.21 264.044,212.815C250.683,212.59 245.383,212.308 244.876,211.744C244.312,211.18 244.481,210.053 245.89,206.501C248.653,199.172 247.582,199.51 269.118,199.284C288.682,199.059 295.391,199.623 298.548,201.54C300.352,202.667 300.521,202.723 300.803,201.709C301.197,200.468 304.749,184.513 304.749,184.062C304.749,183.555 240.083,183.893 236.362,184.457Z" style="fill:rgb(35,35,35);fill-rule:nonzero;"/><path d="M316.927,187.501C312.811,194.943 308.978,202.103 309.147,202.103C309.203,202.103 310.613,201.54 312.191,200.807C314.785,199.623 316.25,199.51 326.85,199.284C338.125,199.059 338.633,199.115 338.351,200.13C338.182,200.75 334.404,210.278 330.063,221.385C325.666,232.435 319.746,247.375 316.927,254.535C311.684,267.953 309.992,271.279 306.159,275.508L304.016,277.876L346.638,277.876L346.864,273.027C347.089,267.615 345.567,271.9 364.736,222.851L373.813,199.454L385.596,199.454C396.646,199.454 397.492,199.566 399.578,200.75L401.776,202.047L402.396,199.848C403.073,197.255 405.948,184.57 405.948,184.119C405.948,183.95 386.385,183.78 362.481,183.78L319.013,183.78L316.927,187.501Z" style="fill:rgb(35,35,35);fill-rule:nonzero;"/><path d="M415.702,188.347C415.702,192.857 415.533,193.365 405.723,218.397C400.254,232.435 394.729,246.586 393.432,249.912C390.613,257.185 389.655,261.808 390.219,266.093C390.839,271.054 392.643,273.704 396.759,275.846L400.254,277.594L431.093,277.594C465.427,277.594 463.736,277.763 472.531,273.253C477.718,270.603 483.75,264.74 486.569,259.553C487.753,257.41 490.234,251.829 492.094,247.093C493.955,242.414 499.142,229.108 503.708,217.607C512.672,194.661 514.42,190.94 518.31,186.656L520.904,183.78L498.014,183.78L498.014,188.347C498.014,192.914 497.901,193.139 486.231,222.851C479.747,239.313 473.884,253.971 473.095,255.381C471.46,258.707 469.487,260.568 466.893,261.357C463.68,262.259 429.684,262.09 427.879,261.131C425.681,260.004 426.019,257.016 429.233,248.841C451.389,191.842 450.713,193.421 455.223,187.501L457.985,183.78L415.702,183.78L415.702,188.347Z" style="fill:rgb(35,35,35);fill-rule:nonzero;"/><path d="M534.265,186.599C534.773,191.673 534.378,192.801 514.025,244.049C504.836,267.164 504.159,268.63 500.1,273.986L497.168,277.876L536.971,277.876C580.552,277.876 581.285,277.819 588.501,274.38C595.097,271.223 601.524,264.345 605.809,255.832C607.952,251.603 624.245,209.714 625.824,204.415C626.331,202.723 626.782,199.397 626.782,197.086C626.782,191.053 625.203,188.234 620.524,185.866L617.085,184.062L533.983,183.724L534.265,186.599ZM589.46,200.637C590.531,201.596 590.7,202.216 590.362,204.189C590.08,206.163 577.676,238.467 571.87,252.393C571.024,254.535 569.22,257.354 567.867,258.707C564.935,261.808 563.526,262.033 551.179,261.808L542.271,261.639L546.95,249.799C549.544,243.259 554.843,229.841 558.733,219.862C562.623,209.94 566.063,201.201 566.401,200.468L566.965,199.059L577.564,199.284C587.148,199.454 588.276,199.566 589.46,200.637Z" style="fill:rgb(35,35,35);fill-rule:nonzero;"/><path d="M648.657,187.501C648.657,193.196 649.39,191.11 631.123,237.34C618.438,269.419 617.987,270.377 613.195,275.677L611.222,277.876L695.338,277.876L698.833,271.561C703.682,262.879 705.599,258.933 705.035,258.989C704.809,258.989 702.498,259.666 699.961,260.455C695.451,261.864 695,261.921 676.169,261.921C665.57,261.921 656.944,261.864 656.944,261.752C656.944,261.582 658.579,257.354 664.161,243.09L666.529,237.001L685.021,237.171C701.37,237.34 703.626,237.452 705.035,238.411C707.177,239.764 707.685,239.708 708.136,237.903C708.305,237.058 709.94,232.717 711.688,228.319C713.435,223.865 714.845,220.144 714.732,220.088C714.676,219.975 713.266,220.37 711.688,220.877C709.32,221.667 705.148,221.892 690.828,222.118C678.143,222.287 672.956,222.174 672.956,221.723C672.956,221.216 678.424,206.388 680.961,200.13C681.356,199.115 682.371,199.059 700.694,199.341C716.423,199.51 720.539,199.735 722.907,200.525C724.542,201.088 725.895,201.427 725.951,201.37C726.177,201.088 729.785,185.19 729.785,184.513C729.785,183.95 721.272,183.78 689.193,183.78L648.657,183.78L648.657,187.501Z" style="fill:rgb(35,35,35);fill-rule:nonzero;"/><path d="M741.906,188.347C741.906,192.857 741.737,193.365 733.957,213.097C729.56,224.147 724.88,236.156 723.471,239.708C712.308,268.63 711.631,270.095 707.065,275.282L704.809,277.876L747.826,277.876L747.826,273.027C747.826,268.235 747.995,267.784 753.746,252.9L759.666,237.678L765.134,237.678C768.122,237.678 770.659,237.734 770.716,237.791C770.716,237.903 770.941,246.868 771.11,257.749L771.505,277.594L812.21,277.932L811.759,276.015C810.631,270.547 808.489,247.488 808.489,240.328L808.489,237.847L811.59,237.734C816.438,237.622 820.61,235.197 823.542,230.856C827.094,225.669 836.847,200.976 837.298,196.071C837.919,189.08 834.705,185.81 825.684,184.401C823.317,184.006 806.347,183.78 781.879,183.78L741.906,183.78L741.906,188.347ZM797.383,199.792C798.623,200.13 799.694,200.863 799.92,201.483C800.314,202.893 798.454,208.53 795.466,214.958C792.252,221.836 792.139,221.892 777.876,222.174C770.659,222.287 766.487,222.118 766.487,221.779C766.487,221.328 771.561,207.572 774.493,200.186C774.831,199.284 775.902,199.172 785.036,199.172C790.617,199.172 796.142,199.454 797.383,199.792Z" style="fill:rgb(35,35,35);fill-rule:nonzero;"/><path d="M857.031,204.922C827.207,271.9 793.831,328.672 762.879,364.98C756.396,372.648 742.527,386.46 735.987,391.816C713.774,410.026 692.406,418.258 673.125,415.89C662.413,414.593 651.758,410.534 642.286,404.163C633.435,398.187 619.791,385.615 609.192,373.606C595.492,358.102 572.884,325.459 561.496,304.824L557.775,298.059L523.61,298.059C504.779,298.059 489.445,298.228 489.445,298.397C489.445,299.412 514.702,337.411 524.286,350.942C542.666,376.707 559.579,396.383 575.421,410.308C599.777,431.788 623.117,443.797 650.123,448.702C657.283,449.999 677.353,450.506 685.415,449.604C726.29,444.924 748.39,429.759 782.781,382.683C819.539,332.393 843.274,284.867 874.17,199.735C876.707,192.745 878.962,186.43 879.187,185.697C879.582,184.401 879.582,184.344 872.873,184.344L866.164,184.344L857.031,204.922Z" style="fill:rgb(35,35,35);fill-rule:nonzero;"/></g><g><path id="path3773" d="M541.475,124.726C548.657,121.968 553.424,115.032 553.424,107.339C553.424,97.122 545.017,88.714 534.8,88.714C524.583,88.714 516.175,97.122 516.175,107.339C516.175,115.032 520.942,121.968 528.125,124.726L515.579,157.415C494.892,149.475 481.161,129.497 481.161,107.339C481.161,77.914 505.375,53.701 534.8,53.701C564.225,53.701 588.438,77.914 588.438,107.339C588.438,129.497 574.707,149.475 554.02,157.415L541.475,124.726Z" style="fill:rgb(245,245,245);fill-rule:nonzero;"/><path d="M596.839,55.786L647.969,55.786C659.105,55.786 667.446,58.434 672.992,63.73C678.537,69.026 681.31,76.564 681.31,86.342C681.31,96.391 678.288,104.245 672.245,109.904C666.201,115.562 656.978,118.392 644.574,118.392L627.735,118.392L627.735,155.33L596.839,155.33L596.839,55.786ZM627.735,98.225L635.272,98.225C641.202,98.225 645.367,97.195 647.766,95.135C650.165,93.075 651.365,90.438 651.365,87.224C651.365,84.101 650.323,81.453 648.241,79.28C646.159,77.107 642.243,76.02 636.494,76.02L627.735,76.02L627.735,98.225Z" style="fill:rgb(245,245,245);fill-rule:nonzero;"/><path d="M690.381,55.786L772.815,55.786L772.815,77.039L721.209,77.039L721.209,92.86L769.08,92.86L769.08,113.163L721.209,113.163L721.209,132.787L774.309,132.787L774.309,155.33L690.381,155.33L690.381,55.786Z" style="fill:rgb(245,245,245);fill-rule:nonzero;"/><path d="M784.127,55.786L812.85,55.786L850.332,110.854L850.332,55.786L879.326,55.786L879.326,155.33L850.332,155.33L813.054,100.669L813.054,155.33L784.127,155.33L784.127,55.786Z" style="fill:rgb(245,245,245);fill-rule:nonzero;"/></g></g></svg>